<svg width="1189" height="600" viewBox="0 0 1189 600" fill="none" xmlns="http://www.w3.org/2000/svg">
<mask id="path-1-inside-1_40_8079" fill="white">
<path d="M6.79878 120.107C-4.1359 109.173 -0.593891 98.5095 14.7101 96.2906L671.795 1.0178C687.099 -1.20117 708.37 5.86431 719.304 16.799L1182.64 480.135C1193.57 491.069 1190.03 501.732 1174.73 503.951L517.644 599.224C502.34 601.443 481.069 594.378 470.134 583.443L6.79878 120.107Z"/>
<path d="M35.3004 117.899C31.3951 113.994 32.6601 110.186 38.1258 109.393L111.104 98.812L171.087 158.795L88.2122 170.811L35.3004 117.899Z"/>
<path d="M110.028 98.9681L192.902 86.9518L252.885 146.935L170.01 158.951L110.028 98.9681Z"/>
<path d="M191.826 87.1079L275.777 74.9357L335.759 134.919L251.809 147.091L191.826 87.1079Z"/>
<path d="M274.7 75.0917L358.651 62.9194L418.634 122.902L334.683 135.075L274.7 75.0917Z"/>
<path d="M357.575 63.0754L440.449 51.0592L500.432 111.042L417.558 123.058L357.575 63.0754Z"/>
<path d="M439.373 51.2153L522.247 39.1991L582.23 99.182L499.356 111.198L439.373 51.2153Z"/>
<path d="M521.171 39.3551L605.122 27.1828L665.105 87.1657L581.154 99.338L521.171 39.3551Z"/>
<path d="M604.046 27.3389L678.1 16.6015C683.566 15.809 691.162 18.3324 695.068 22.2376L747.979 75.1495L664.029 87.3218L604.046 27.3389Z"/>
<path d="M87.4432 170.042L170.318 158.026L230.301 218.009L147.426 230.025L87.4432 170.042Z"/>
<path d="M169.241 158.182L252.116 146.166L312.099 206.149L229.224 218.165L169.241 158.182Z"/>
<path d="M251.04 146.322L334.99 134.15L394.973 194.132L311.023 206.305L251.04 146.322Z"/>
<path d="M333.914 134.306L417.865 122.133L477.848 182.116L393.897 194.288L333.914 134.306Z"/>
<path d="M416.789 122.289L499.663 110.273L559.646 170.256L476.772 182.272L416.789 122.289Z"/>
<path d="M498.587 110.429L581.461 98.413L641.444 158.396L558.57 170.412L498.587 110.429Z"/>
<path d="M580.385 98.569L664.336 86.3967L724.319 146.38L640.368 158.552L580.385 98.569Z"/>
<path d="M663.26 86.5527L747.21 74.3805L807.193 134.363L723.242 146.536L663.26 86.5527Z"/>
<path d="M146.657 229.256L229.532 217.24L289.515 277.223L206.64 289.239L146.657 229.256Z"/>
<path d="M228.455 217.396L311.33 205.38L371.313 265.363L288.438 277.379L228.455 217.396Z"/>
<path d="M310.254 205.536L394.204 193.363L454.187 253.346L370.236 265.519L310.254 205.536Z"/>
<path d="M393.128 193.519L477.079 181.347L537.062 241.33L453.111 253.502L393.128 193.519Z"/>
<path d="M476.003 181.503L558.877 169.487L618.86 229.47L535.985 241.486L476.003 181.503Z"/>
<path d="M557.801 169.643L640.675 157.627L700.658 217.61L617.784 229.626L557.801 169.643Z"/>
<path d="M639.599 157.783L723.55 145.611L783.533 205.594L699.582 217.766L639.599 157.783Z"/>
<path d="M722.474 145.767L806.424 133.594L866.407 193.577L782.456 205.75L722.474 145.767Z"/>
<path d="M205.871 288.47L288.746 276.454L348.728 336.437L265.854 348.453L205.871 288.47Z"/>
<path d="M287.669 276.61L370.544 264.594L430.527 324.576L347.652 336.593L287.669 276.61Z"/>
<path d="M369.467 264.75L453.418 252.577L513.401 312.56L429.45 324.733L369.467 264.75Z"/>
<path d="M452.342 252.733L536.293 240.561L596.276 300.544L512.325 312.716L452.342 252.733Z"/>
<path d="M535.216 240.717L618.091 228.701L678.074 288.684L595.199 300.7L535.216 240.717Z"/>
<path d="M617.015 228.857L699.889 216.841L759.872 276.824L676.998 288.84L617.015 228.857Z"/>
<path d="M698.813 216.997L782.764 204.825L842.747 264.807L758.796 276.98L698.813 216.997Z"/>
<path d="M781.687 204.981L865.638 192.808L925.621 252.791L841.67 264.964L781.687 204.981Z"/>
<path d="M265.085 347.684L347.959 335.668L407.942 395.651L325.068 407.667L265.085 347.684Z"/>
<path d="M346.883 335.824L429.758 323.807L489.741 383.79L406.866 395.807L346.883 335.824Z"/>
<path d="M428.681 323.964L512.632 311.791L572.615 371.774L488.664 383.946L428.681 323.964Z"/>
<path d="M511.556 311.947L595.507 299.775L655.49 359.758L571.539 371.93L511.556 311.947Z"/>
<path d="M594.43 299.931L677.305 287.915L737.288 347.898L654.413 359.914L594.43 299.931Z"/>
<path d="M676.229 288.071L759.103 276.055L819.086 336.038L736.211 348.054L676.229 288.071Z"/>
<path d="M758.027 276.211L841.978 264.038L901.96 324.021L818.01 336.194L758.027 276.211Z"/>
<path d="M840.901 264.194L924.852 252.022L984.835 312.005L900.884 324.177L840.901 264.194Z"/>
<path d="M442.727 525.326L525.601 513.309L585.584 573.292L512.606 583.874C507.14 584.666 499.544 582.143 495.638 578.237L442.727 525.326Z"/>
<path d="M524.525 513.465L607.399 501.449L667.382 561.432L584.508 573.448L524.525 513.465Z"/>
<path d="M606.323 501.605L690.274 489.433L750.257 549.416L666.306 561.588L606.323 501.605Z"/>
<path d="M689.198 489.589L773.148 477.417L833.131 537.4L749.18 549.572L689.198 489.589Z"/>
<path d="M772.072 477.573L854.947 465.557L914.929 525.539L832.055 537.556L772.072 477.573Z"/>
<path d="M853.87 465.713L936.745 453.696L996.728 513.679L913.853 525.695L853.87 465.713Z"/>
<path d="M935.669 453.852L1019.62 441.68L1079.6 501.663L995.651 513.835L935.669 453.852Z"/>
<path d="M1018.54 441.836L1102.49 429.664L1155.41 482.576C1159.31 486.481 1158.05 490.289 1152.58 491.082L1078.53 501.819L1018.54 441.836Z"/>
<path d="M324.299 406.898L407.173 394.882L467.156 454.864L384.282 466.881L324.299 406.898Z"/>
<path d="M406.097 395.038L488.972 383.021L548.954 443.004L466.08 455.021L406.097 395.038Z"/>
<path d="M487.895 383.177L571.846 371.005L631.829 430.988L547.878 443.16L487.895 383.177Z"/>
<path d="M570.77 371.161L654.721 358.989L714.703 418.972L630.753 431.144L570.77 371.161Z"/>
<path d="M653.644 359.145L736.519 347.129L796.502 407.112L713.627 419.128L653.644 359.145Z"/>
<path d="M735.443 347.285L818.317 335.269L878.3 395.251L795.425 407.268L735.443 347.285Z"/>
<path d="M817.241 335.425L901.191 323.252L961.174 383.235L877.224 395.408L817.241 335.425Z"/>
<path d="M900.115 323.408L984.066 311.236L1044.05 371.219L960.098 383.391L900.115 323.408Z"/>
<path d="M383.513 466.112L466.387 454.095L526.37 514.078L443.496 526.095L383.513 466.112Z"/>
<path d="M465.311 454.252L548.185 442.235L608.168 502.218L525.294 514.234L465.311 454.252Z"/>
<path d="M547.109 442.391L631.06 430.219L691.043 490.202L607.092 502.374L547.109 442.391Z"/>
<path d="M629.984 430.375L713.934 418.203L773.917 478.186L689.967 490.358L629.984 430.375Z"/>
<path d="M712.858 418.359L795.733 406.343L855.716 466.326L772.841 478.342L712.858 418.359Z"/>
<path d="M794.656 406.499L877.531 394.482L937.514 454.465L854.639 466.482L794.656 406.499Z"/>
<path d="M876.455 394.639L960.405 382.466L1020.39 442.449L936.438 454.621L876.455 394.639Z"/>
<path d="M959.329 382.622L1043.28 370.45L1103.26 430.433L1019.31 442.605L959.329 382.622Z"/>
</mask>
<path d="M6.79878 120.107C-4.1359 109.173 -0.593891 98.5095 14.7101 96.2906L671.795 1.0178C687.099 -1.20117 708.37 5.86431 719.304 16.799L1182.64 480.135C1193.57 491.069 1190.03 501.732 1174.73 503.951L517.644 599.224C502.34 601.443 481.069 594.378 470.134 583.443L6.79878 120.107Z" fill="url(#paint0_linear_40_8079)" fill-opacity="0.66"/>
<path d="M498.587 110.429L581.461 98.413L641.444 158.396L558.57 170.412L498.587 110.429Z" fill="#D9D9D9"/>
<path d="M228.455 217.396L311.33 205.38L371.313 265.363L288.438 277.379L228.455 217.396Z" fill="#D9D9D9"/>
<path d="M476.003 181.503L558.877 169.487L618.86 229.47L535.985 241.486L476.003 181.503Z" fill="#D9D9D9"/>
<path d="M639.599 157.783L723.55 145.611L783.533 205.594L699.582 217.766L639.599 157.783Z" fill="#D9D9D9"/>
<path d="M465.311 454.252L548.185 442.235L608.168 502.218L525.294 514.234L465.311 454.252Z" fill="#D9D9D9"/>
<path d="M547.109 442.391L631.06 430.219L691.043 490.202L607.092 502.374L547.109 442.391Z" fill="#D9D9D9"/>
<path d="M6.79878 120.107C-4.1359 109.173 -0.593891 98.5095 14.7101 96.2906L671.795 1.0178C687.099 -1.20117 708.37 5.86431 719.304 16.799L1182.64 480.135C1193.57 491.069 1190.03 501.732 1174.73 503.951L517.644 599.224C502.34 601.443 481.069 594.378 470.134 583.443L6.79878 120.107Z" stroke="white" stroke-opacity="0.6" stroke-width="2" mask="url(#path-1-inside-1_40_8079)"/>
<path d="M35.3004 117.899C31.3951 113.994 32.6601 110.186 38.1258 109.393L111.104 98.812L171.087 158.795L88.2122 170.811L35.3004 117.899Z" stroke="white" stroke-opacity="0.6" stroke-width="2" mask="url(#path-1-inside-1_40_8079)"/>
<path d="M110.028 98.9681L192.902 86.9518L252.885 146.935L170.01 158.951L110.028 98.9681Z" stroke="white" stroke-opacity="0.6" stroke-width="2" mask="url(#path-1-inside-1_40_8079)"/>
<path d="M191.826 87.1079L275.777 74.9357L335.759 134.919L251.809 147.091L191.826 87.1079Z" stroke="white" stroke-opacity="0.6" stroke-width="2" mask="url(#path-1-inside-1_40_8079)"/>
<path d="M274.7 75.0917L358.651 62.9194L418.634 122.902L334.683 135.075L274.7 75.0917Z" stroke="white" stroke-opacity="0.6" stroke-width="2" mask="url(#path-1-inside-1_40_8079)"/>
<path d="M357.575 63.0754L440.449 51.0592L500.432 111.042L417.558 123.058L357.575 63.0754Z" stroke="white" stroke-opacity="0.6" stroke-width="2" mask="url(#path-1-inside-1_40_8079)"/>
<path d="M439.373 51.2153L522.247 39.1991L582.23 99.182L499.356 111.198L439.373 51.2153Z" stroke="white" stroke-opacity="0.6" stroke-width="2" mask="url(#path-1-inside-1_40_8079)"/>
<path d="M521.171 39.3551L605.122 27.1828L665.105 87.1657L581.154 99.338L521.171 39.3551Z" stroke="white" stroke-opacity="0.6" stroke-width="2" mask="url(#path-1-inside-1_40_8079)"/>
<path d="M604.046 27.3389L678.1 16.6015C683.566 15.809 691.162 18.3324 695.068 22.2376L747.979 75.1495L664.029 87.3218L604.046 27.3389Z" stroke="white" stroke-opacity="0.6" stroke-width="2" mask="url(#path-1-inside-1_40_8079)"/>
<path d="M87.4432 170.042L170.318 158.026L230.301 218.009L147.426 230.025L87.4432 170.042Z" stroke="white" stroke-opacity="0.6" stroke-width="2" mask="url(#path-1-inside-1_40_8079)"/>
<path d="M169.241 158.182L252.116 146.166L312.099 206.149L229.224 218.165L169.241 158.182Z" stroke="white" stroke-opacity="0.6" stroke-width="2" mask="url(#path-1-inside-1_40_8079)"/>
<path d="M251.04 146.322L334.99 134.15L394.973 194.132L311.023 206.305L251.04 146.322Z" stroke="white" stroke-opacity="0.6" stroke-width="2" mask="url(#path-1-inside-1_40_8079)"/>
<path d="M333.914 134.306L417.865 122.133L477.848 182.116L393.897 194.288L333.914 134.306Z" stroke="white" stroke-opacity="0.6" stroke-width="2" mask="url(#path-1-inside-1_40_8079)"/>
<path d="M416.789 122.289L499.663 110.273L559.646 170.256L476.772 182.272L416.789 122.289Z" stroke="white" stroke-opacity="0.6" stroke-width="2" mask="url(#path-1-inside-1_40_8079)"/>
<path d="M498.587 110.429L581.461 98.413L641.444 158.396L558.57 170.412L498.587 110.429Z" stroke="white" stroke-opacity="0.6" stroke-width="2" mask="url(#path-1-inside-1_40_8079)"/>
<path d="M580.385 98.569L664.336 86.3967L724.319 146.38L640.368 158.552L580.385 98.569Z" stroke="white" stroke-opacity="0.6" stroke-width="2" mask="url(#path-1-inside-1_40_8079)"/>
<path d="M663.26 86.5527L747.21 74.3805L807.193 134.363L723.242 146.536L663.26 86.5527Z" stroke="white" stroke-opacity="0.6" stroke-width="2" mask="url(#path-1-inside-1_40_8079)"/>
<path d="M146.657 229.256L229.532 217.24L289.515 277.223L206.64 289.239L146.657 229.256Z" stroke="white" stroke-opacity="0.6" stroke-width="2" mask="url(#path-1-inside-1_40_8079)"/>
<path d="M228.455 217.396L311.33 205.38L371.313 265.363L288.438 277.379L228.455 217.396Z" stroke="white" stroke-opacity="0.6" stroke-width="2" mask="url(#path-1-inside-1_40_8079)"/>
<path d="M310.254 205.536L394.204 193.363L454.187 253.346L370.236 265.519L310.254 205.536Z" stroke="white" stroke-opacity="0.6" stroke-width="2" mask="url(#path-1-inside-1_40_8079)"/>
<path d="M393.128 193.519L477.079 181.347L537.062 241.33L453.111 253.502L393.128 193.519Z" stroke="white" stroke-opacity="0.6" stroke-width="2" mask="url(#path-1-inside-1_40_8079)"/>
<path d="M476.003 181.503L558.877 169.487L618.86 229.47L535.985 241.486L476.003 181.503Z" stroke="white" stroke-opacity="0.6" stroke-width="2" mask="url(#path-1-inside-1_40_8079)"/>
<path d="M557.801 169.643L640.675 157.627L700.658 217.61L617.784 229.626L557.801 169.643Z" stroke="white" stroke-opacity="0.6" stroke-width="2" mask="url(#path-1-inside-1_40_8079)"/>
<path d="M639.599 157.783L723.55 145.611L783.533 205.594L699.582 217.766L639.599 157.783Z" stroke="white" stroke-opacity="0.6" stroke-width="2" mask="url(#path-1-inside-1_40_8079)"/>
<path d="M722.474 145.767L806.424 133.594L866.407 193.577L782.456 205.75L722.474 145.767Z" stroke="white" stroke-opacity="0.6" stroke-width="2" mask="url(#path-1-inside-1_40_8079)"/>
<path d="M205.871 288.47L288.746 276.454L348.728 336.437L265.854 348.453L205.871 288.47Z" stroke="white" stroke-opacity="0.6" stroke-width="2" mask="url(#path-1-inside-1_40_8079)"/>
<path d="M287.669 276.61L370.544 264.594L430.527 324.576L347.652 336.593L287.669 276.61Z" stroke="white" stroke-opacity="0.6" stroke-width="2" mask="url(#path-1-inside-1_40_8079)"/>
<path d="M369.467 264.75L453.418 252.577L513.401 312.56L429.45 324.733L369.467 264.75Z" stroke="white" stroke-opacity="0.6" stroke-width="2" mask="url(#path-1-inside-1_40_8079)"/>
<path d="M452.342 252.733L536.293 240.561L596.276 300.544L512.325 312.716L452.342 252.733Z" stroke="white" stroke-opacity="0.6" stroke-width="2" mask="url(#path-1-inside-1_40_8079)"/>
<path d="M535.216 240.717L618.091 228.701L678.074 288.684L595.199 300.7L535.216 240.717Z" stroke="white" stroke-opacity="0.6" stroke-width="2" mask="url(#path-1-inside-1_40_8079)"/>
<path d="M617.015 228.857L699.889 216.841L759.872 276.824L676.998 288.84L617.015 228.857Z" stroke="white" stroke-opacity="0.6" stroke-width="2" mask="url(#path-1-inside-1_40_8079)"/>
<path d="M698.813 216.997L782.764 204.825L842.747 264.807L758.796 276.98L698.813 216.997Z" stroke="white" stroke-opacity="0.6" stroke-width="2" mask="url(#path-1-inside-1_40_8079)"/>
<path d="M781.687 204.981L865.638 192.808L925.621 252.791L841.67 264.964L781.687 204.981Z" stroke="white" stroke-opacity="0.6" stroke-width="2" mask="url(#path-1-inside-1_40_8079)"/>
<path d="M265.085 347.684L347.959 335.668L407.942 395.651L325.068 407.667L265.085 347.684Z" stroke="white" stroke-opacity="0.6" stroke-width="2" mask="url(#path-1-inside-1_40_8079)"/>
<path d="M346.883 335.824L429.758 323.807L489.741 383.79L406.866 395.807L346.883 335.824Z" stroke="white" stroke-opacity="0.6" stroke-width="2" mask="url(#path-1-inside-1_40_8079)"/>
<path d="M428.681 323.964L512.632 311.791L572.615 371.774L488.664 383.946L428.681 323.964Z" stroke="white" stroke-opacity="0.6" stroke-width="2" mask="url(#path-1-inside-1_40_8079)"/>
<path d="M511.556 311.947L595.507 299.775L655.49 359.758L571.539 371.93L511.556 311.947Z" stroke="white" stroke-opacity="0.6" stroke-width="2" mask="url(#path-1-inside-1_40_8079)"/>
<path d="M594.43 299.931L677.305 287.915L737.288 347.898L654.413 359.914L594.43 299.931Z" stroke="white" stroke-opacity="0.6" stroke-width="2" mask="url(#path-1-inside-1_40_8079)"/>
<path d="M676.229 288.071L759.103 276.055L819.086 336.038L736.211 348.054L676.229 288.071Z" stroke="white" stroke-opacity="0.6" stroke-width="2" mask="url(#path-1-inside-1_40_8079)"/>
<path d="M758.027 276.211L841.978 264.038L901.96 324.021L818.01 336.194L758.027 276.211Z" stroke="white" stroke-opacity="0.6" stroke-width="2" mask="url(#path-1-inside-1_40_8079)"/>
<path d="M840.901 264.194L924.852 252.022L984.835 312.005L900.884 324.177L840.901 264.194Z" stroke="white" stroke-opacity="0.6" stroke-width="2" mask="url(#path-1-inside-1_40_8079)"/>
<path d="M442.727 525.326L525.601 513.309L585.584 573.292L512.606 583.874C507.14 584.666 499.544 582.143 495.638 578.237L442.727 525.326Z" stroke="white" stroke-opacity="0.6" stroke-width="2" mask="url(#path-1-inside-1_40_8079)"/>
<path d="M524.525 513.465L607.399 501.449L667.382 561.432L584.508 573.448L524.525 513.465Z" stroke="white" stroke-opacity="0.6" stroke-width="2" mask="url(#path-1-inside-1_40_8079)"/>
<path d="M606.323 501.605L690.274 489.433L750.257 549.416L666.306 561.588L606.323 501.605Z" stroke="white" stroke-opacity="0.6" stroke-width="2" mask="url(#path-1-inside-1_40_8079)"/>
<path d="M689.198 489.589L773.148 477.417L833.131 537.4L749.18 549.572L689.198 489.589Z" stroke="white" stroke-opacity="0.6" stroke-width="2" mask="url(#path-1-inside-1_40_8079)"/>
<path d="M772.072 477.573L854.947 465.557L914.929 525.539L832.055 537.556L772.072 477.573Z" stroke="white" stroke-opacity="0.6" stroke-width="2" mask="url(#path-1-inside-1_40_8079)"/>
<path d="M853.87 465.713L936.745 453.696L996.728 513.679L913.853 525.695L853.87 465.713Z" stroke="white" stroke-opacity="0.6" stroke-width="2" mask="url(#path-1-inside-1_40_8079)"/>
<path d="M935.669 453.852L1019.62 441.68L1079.6 501.663L995.651 513.835L935.669 453.852Z" stroke="white" stroke-opacity="0.6" stroke-width="2" mask="url(#path-1-inside-1_40_8079)"/>
<path d="M1018.54 441.836L1102.49 429.664L1155.41 482.576C1159.31 486.481 1158.05 490.289 1152.58 491.082L1078.53 501.819L1018.54 441.836Z" stroke="white" stroke-opacity="0.6" stroke-width="2" mask="url(#path-1-inside-1_40_8079)"/>
<path d="M324.299 406.898L407.173 394.882L467.156 454.864L384.282 466.881L324.299 406.898Z" stroke="white" stroke-opacity="0.6" stroke-width="2" mask="url(#path-1-inside-1_40_8079)"/>
<path d="M406.097 395.038L488.972 383.021L548.954 443.004L466.08 455.021L406.097 395.038Z" stroke="white" stroke-opacity="0.6" stroke-width="2" mask="url(#path-1-inside-1_40_8079)"/>
<path d="M487.895 383.177L571.846 371.005L631.829 430.988L547.878 443.16L487.895 383.177Z" stroke="white" stroke-opacity="0.6" stroke-width="2" mask="url(#path-1-inside-1_40_8079)"/>
<path d="M570.77 371.161L654.721 358.989L714.703 418.972L630.753 431.144L570.77 371.161Z" stroke="white" stroke-opacity="0.6" stroke-width="2" mask="url(#path-1-inside-1_40_8079)"/>
<path d="M653.644 359.145L736.519 347.129L796.502 407.112L713.627 419.128L653.644 359.145Z" stroke="white" stroke-opacity="0.6" stroke-width="2" mask="url(#path-1-inside-1_40_8079)"/>
<path d="M735.443 347.285L818.317 335.269L878.3 395.251L795.425 407.268L735.443 347.285Z" stroke="white" stroke-opacity="0.6" stroke-width="2" mask="url(#path-1-inside-1_40_8079)"/>
<path d="M817.241 335.425L901.191 323.252L961.174 383.235L877.224 395.408L817.241 335.425Z" stroke="white" stroke-opacity="0.6" stroke-width="2" mask="url(#path-1-inside-1_40_8079)"/>
<path d="M900.115 323.408L984.066 311.236L1044.05 371.219L960.098 383.391L900.115 323.408Z" stroke="white" stroke-opacity="0.6" stroke-width="2" mask="url(#path-1-inside-1_40_8079)"/>
<path d="M383.513 466.112L466.387 454.095L526.37 514.078L443.496 526.095L383.513 466.112Z" stroke="white" stroke-opacity="0.6" stroke-width="2" mask="url(#path-1-inside-1_40_8079)"/>
<path d="M465.311 454.252L548.185 442.235L608.168 502.218L525.294 514.234L465.311 454.252Z" stroke="white" stroke-opacity="0.6" stroke-width="2" mask="url(#path-1-inside-1_40_8079)"/>
<path d="M547.109 442.391L631.06 430.219L691.043 490.202L607.092 502.374L547.109 442.391Z" stroke="white" stroke-opacity="0.6" stroke-width="2" mask="url(#path-1-inside-1_40_8079)"/>
<path d="M629.984 430.375L713.934 418.203L773.917 478.186L689.967 490.358L629.984 430.375Z" stroke="white" stroke-opacity="0.6" stroke-width="2" mask="url(#path-1-inside-1_40_8079)"/>
<path d="M712.858 418.359L795.733 406.343L855.716 466.326L772.841 478.342L712.858 418.359Z" stroke="white" stroke-opacity="0.6" stroke-width="2" mask="url(#path-1-inside-1_40_8079)"/>
<path d="M794.656 406.499L877.531 394.482L937.514 454.465L854.639 466.482L794.656 406.499Z" stroke="white" stroke-opacity="0.6" stroke-width="2" mask="url(#path-1-inside-1_40_8079)"/>
<path d="M876.455 394.639L960.405 382.466L1020.39 442.449L936.438 454.621L876.455 394.639Z" stroke="white" stroke-opacity="0.6" stroke-width="2" mask="url(#path-1-inside-1_40_8079)"/>
<path d="M959.329 382.622L1043.28 370.45L1103.26 430.433L1019.31 442.605L959.329 382.622Z" stroke="white" stroke-opacity="0.6" stroke-width="2" mask="url(#path-1-inside-1_40_8079)"/>
<defs>
<linearGradient id="paint0_linear_40_8079" x1="565.096" y1="-57.5516" x2="572.807" y2="808.202" gradientUnits="userSpaceOnUse">
<stop stop-color="#5980E3"/>
<stop offset="0.47" stop-color="#CC74EA"/>
<stop offset="1" stop-color="#F0B663"/>
</linearGradient>
</defs>
</svg>
